<?xml version="1.0" encoding="utf-8" standalone="no"?>
<!DOCTYPE svg PUBLIC "-//W3C//DTD SVG 1.1//EN"
  "http://www.w3.org/Graphics/SVG/1.1/DTD/svg11.dtd">
<svg height="720pt" version="1.1" viewBox="0 0 1152 720" width="1152pt" xmlns="http://www.w3.org/2000/svg" xmlns:xlink="http://www.w3.org/1999/xlink">
 <metadata>
  <rdf:RDF xmlns:cc="http://creativecommons.org/ns#" xmlns:dc="http://purl.org/dc/elements/1.1/" xmlns:rdf="http://www.w3.org/1999/02/22-rdf-syntax-ns#">
   <cc:Work>
    <dc:type rdf:resource="http://purl.org/dc/dcmitype/StillImage"/>
    <dc:date>2024-05-15T14:11:36.815889</dc:date>
    <dc:format>image/svg+xml</dc:format>
    <dc:creator>
     <cc:Agent>
      <dc:title>Matplotlib v3.4.3, https://matplotlib.org/</dc:title>
     </cc:Agent>
    </dc:creator>
   </cc:Work>
  </rdf:RDF>
 </metadata>
 <defs>
  <style type="text/css">*{stroke-linecap:butt;stroke-linejoin:round;}</style>
 </defs>
 <g id="figure_1">
  <g id="patch_1">
   <path d="M 0 720 
L 1152 720 
L 1152 0 
L 0 0 
z
" style="fill:#ffffff;"/>
  </g>
  <g id="axes_1">
   <g id="patch_2">
    <path d="M 144 640.8 
L 1036.8 640.8 
L 1036.8 86.4 
L 144 86.4 
z
" style="fill:#ffffff;"/>
   </g>
   <g id="PathCollection_1">
    <defs>
     <path d="M 0 3 
C 0.795609 3 1.55874 2.683901 2.12132 2.12132 
C 2.683901 1.55874 3 0.795609 3 0 
C 3 -0.795609 2.683901 -1.55874 2.12132 -2.12132 
C 1.55874 -2.683901 0.795609 -3 0 -3 
C -0.795609 -3 -1.55874 -2.683901 -2.12132 -2.12132 
C -2.683901 -1.55874 -3 -0.795609 -3 0 
C -3 0.795609 -2.683901 1.55874 -2.12132 2.12132 
C -1.55874 2.683901 -0.795609 3 0 3 
z
" id="m9a15d00047" style="stroke:#008000;"/>
    </defs>
    <g clip-path="url(#p000a9c9f98)">
     <use style="fill:#008000;stroke:#008000;" x="664.573575" xlink:href="#m9a15d00047" y="218.131875"/>
    </g>
   </g>
   <g id="PathCollection_2">
    <g clip-path="url(#p000a9c9f98)">
     <use style="fill:#008000;stroke:#008000;" x="664.573575" xlink:href="#m9a15d00047" y="640.8"/>
    </g>
   </g>
   <g id="PathCollection_3">
    <g clip-path="url(#p000a9c9f98)">
     <use style="fill:#008000;stroke:#008000;" x="144" xlink:href="#m9a15d00047" y="218.131875"/>
    </g>
   </g>
   <g id="matplotlib.axis_1">
    <g id="xtick_1">
     <g id="line2d_1">
      <path clip-path="url(#p000a9c9f98)" d="M 144 640.8 
L 144 86.4 
" style="fill:none;stroke:#0000ff;stroke-dasharray:0.5,0.825;stroke-dashoffset:0;stroke-width:0.5;"/>
     </g>
     <g id="line2d_2">
      <defs>
       <path d="M 0 0 
L 0 3.5 
" id="m51a755cc9e" style="stroke:#000000;stroke-width:0.8;"/>
      </defs>
      <g>
       <use style="stroke:#000000;stroke-width:0.8;" x="144" xlink:href="#m51a755cc9e" y="640.8"/>
      </g>
     </g>
     <g id="text_1">
      <!-- 0 -->
      <g transform="translate(140.81875 655.398438)scale(0.1 -0.1)">
       <defs>
        <path d="M 2034 4250 
Q 1547 4250 1301 3770 
Q 1056 3291 1056 2328 
Q 1056 1369 1301 889 
Q 1547 409 2034 409 
Q 2525 409 2770 889 
Q 3016 1369 3016 2328 
Q 3016 3291 2770 3770 
Q 2525 4250 2034 4250 
z
M 2034 4750 
Q 2819 4750 3233 4129 
Q 3647 3509 3647 2328 
Q 3647 1150 3233 529 
Q 2819 -91 2034 -91 
Q 1250 -91 836 529 
Q 422 1150 422 2328 
Q 422 3509 836 4129 
Q 1250 4750 2034 4750 
z
" id="DejaVuSans-30" transform="scale(0.015625)"/>
       </defs>
       <use xlink:href="#DejaVuSans-30"/>
      </g>
     </g>
    </g>
    <g id="xtick_2">
     <g id="line2d_3">
      <path clip-path="url(#p000a9c9f98)" d="M 218.4 640.8 
L 218.4 86.4 
" style="fill:none;stroke:#0000ff;stroke-dasharray:0.5,0.825;stroke-dashoffset:0;stroke-width:0.5;"/>
     </g>
     <g id="line2d_4">
      <g>
       <use style="stroke:#000000;stroke-width:0.8;" x="218.4" xlink:href="#m51a755cc9e" y="640.8"/>
      </g>
     </g>
     <g id="text_2">
      <!-- 1 -->
      <g transform="translate(215.21875 655.398438)scale(0.1 -0.1)">
       <defs>
        <path d="M 794 531 
L 1825 531 
L 1825 4091 
L 703 3866 
L 703 4441 
L 1819 4666 
L 2450 4666 
L 2450 531 
L 3481 531 
L 3481 0 
L 794 0 
L 794 531 
z
" id="DejaVuSans-31" transform="scale(0.015625)"/>
       </defs>
       <use xlink:href="#DejaVuSans-31"/>
      </g>
     </g>
    </g>
    <g id="xtick_3">
     <g id="line2d_5">
      <path clip-path="url(#p000a9c9f98)" d="M 292.8 640.8 
L 292.8 86.4 
" style="fill:none;stroke:#0000ff;stroke-dasharray:0.5,0.825;stroke-dashoffset:0;stroke-width:0.5;"/>
     </g>
     <g id="line2d_6">
      <g>
       <use style="stroke:#000000;stroke-width:0.8;" x="292.8" xlink:href="#m51a755cc9e" y="640.8"/>
      </g>
     </g>
     <g id="text_3">
      <!-- 2 -->
      <g transform="translate(289.61875 655.398438)scale(0.1 -0.1)">
       <defs>
        <path d="M 1228 531 
L 3431 531 
L 3431 0 
L 469 0 
L 469 531 
Q 828 903 1448 1529 
Q 2069 2156 2228 2338 
Q 2531 2678 2651 2914 
Q 2772 3150 2772 3378 
Q 2772 3750 2511 3984 
Q 2250 4219 1831 4219 
Q 1534 4219 1204 4116 
Q 875 4013 500 3803 
L 500 4441 
Q 881 4594 1212 4672 
Q 1544 4750 1819 4750 
Q 2544 4750 2975 4387 
Q 3406 4025 3406 3419 
Q 3406 3131 3298 2873 
Q 3191 2616 2906 2266 
Q 2828 2175 2409 1742 
Q 1991 1309 1228 531 
z
" id="DejaVuSans-32" transform="scale(0.015625)"/>
       </defs>
       <use xlink:href="#DejaVuSans-32"/>
      </g>
     </g>
    </g>
    <g id="xtick_4">
     <g id="line2d_7">
      <path clip-path="url(#p000a9c9f98)" d="M 367.2 640.8 
L 367.2 86.4 
" style="fill:none;stroke:#0000ff;stroke-dasharray:0.5,0.825;stroke-dashoffset:0;stroke-width:0.5;"/>
     </g>
     <g id="line2d_8">
      <g>
       <use style="stroke:#000000;stroke-width:0.8;" x="367.2" xlink:href="#m51a755cc9e" y="640.8"/>
      </g>
     </g>
     <g id="text_4">
      <!-- 3 -->
      <g transform="translate(364.01875 655.398438)scale(0.1 -0.1)">
       <defs>
        <path d="M 2597 2516 
Q 3050 2419 3304 2112 
Q 3559 1806 3559 1356 
Q 3559 666 3084 287 
Q 2609 -91 1734 -91 
Q 1441 -91 1130 -33 
Q 819 25 488 141 
L 488 750 
Q 750 597 1062 519 
Q 1375 441 1716 441 
Q 2309 441 2620 675 
Q 2931 909 2931 1356 
Q 2931 1769 2642 2001 
Q 2353 2234 1838 2234 
L 1294 2234 
L 1294 2753 
L 1863 2753 
Q 2328 2753 2575 2939 
Q 2822 3125 2822 3475 
Q 2822 3834 2567 4026 
Q 2313 4219 1838 4219 
Q 1578 4219 1281 4162 
Q 984 4106 628 3988 
L 628 4550 
Q 988 4650 1302 4700 
Q 1616 4750 1894 4750 
Q 2613 4750 3031 4423 
Q 3450 4097 3450 3541 
Q 3450 3153 3228 2886 
Q 3006 2619 2597 2516 
z
" id="DejaVuSans-33" transform="scale(0.015625)"/>
       </defs>
       <use xlink:href="#DejaVuSans-33"/>
      </g>
     </g>
    </g>
    <g id="xtick_5">
     <g id="line2d_9">
      <path clip-path="url(#p000a9c9f98)" d="M 441.6 640.8 
L 441.6 86.4 
" style="fill:none;stroke:#0000ff;stroke-dasharray:0.5,0.825;stroke-dashoffset:0;stroke-width:0.5;"/>
     </g>
     <g id="line2d_10">
      <g>
       <use style="stroke:#000000;stroke-width:0.8;" x="441.6" xlink:href="#m51a755cc9e" y="640.8"/>
      </g>
     </g>
     <g id="text_5">
      <!-- 4 -->
      <g transform="translate(438.41875 655.398438)scale(0.1 -0.1)">
       <defs>
        <path d="M 2419 4116 
L 825 1625 
L 2419 1625 
L 2419 4116 
z
M 2253 4666 
L 3047 4666 
L 3047 1625 
L 3713 1625 
L 3713 1100 
L 3047 1100 
L 3047 0 
L 2419 0 
L 2419 1100 
L 313 1100 
L 313 1709 
L 2253 4666 
z
" id="DejaVuSans-34" transform="scale(0.015625)"/>
       </defs>
       <use xlink:href="#DejaVuSans-34"/>
      </g>
     </g>
    </g>
    <g id="xtick_6">
     <g id="line2d_11">
      <path clip-path="url(#p000a9c9f98)" d="M 516 640.8 
L 516 86.4 
" style="fill:none;stroke:#0000ff;stroke-dasharray:0.5,0.825;stroke-dashoffset:0;stroke-width:0.5;"/>
     </g>
     <g id="line2d_12">
      <g>
       <use style="stroke:#000000;stroke-width:0.8;" x="516" xlink:href="#m51a755cc9e" y="640.8"/>
      </g>
     </g>
     <g id="text_6">
      <!-- 5 -->
      <g transform="translate(512.81875 655.398438)scale(0.1 -0.1)">
       <defs>
        <path d="M 691 4666 
L 3169 4666 
L 3169 4134 
L 1269 4134 
L 1269 2991 
Q 1406 3038 1543 3061 
Q 1681 3084 1819 3084 
Q 2600 3084 3056 2656 
Q 3513 2228 3513 1497 
Q 3513 744 3044 326 
Q 2575 -91 1722 -91 
Q 1428 -91 1123 -41 
Q 819 9 494 109 
L 494 744 
Q 775 591 1075 516 
Q 1375 441 1709 441 
Q 2250 441 2565 725 
Q 2881 1009 2881 1497 
Q 2881 1984 2565 2268 
Q 2250 2553 1709 2553 
Q 1456 2553 1204 2497 
Q 953 2441 691 2322 
L 691 4666 
z
" id="DejaVuSans-35" transform="scale(0.015625)"/>
       </defs>
       <use xlink:href="#DejaVuSans-35"/>
      </g>
     </g>
    </g>
    <g id="xtick_7">
     <g id="line2d_13">
      <path clip-path="url(#p000a9c9f98)" d="M 590.4 640.8 
L 590.4 86.4 
" style="fill:none;stroke:#0000ff;stroke-dasharray:0.5,0.825;stroke-dashoffset:0;stroke-width:0.5;"/>
     </g>
     <g id="line2d_14">
      <g>
       <use style="stroke:#000000;stroke-width:0.8;" x="590.4" xlink:href="#m51a755cc9e" y="640.8"/>
      </g>
     </g>
     <g id="text_7">
      <!-- 6 -->
      <g transform="translate(587.21875 655.398438)scale(0.1 -0.1)">
       <defs>
        <path d="M 2113 2584 
Q 1688 2584 1439 2293 
Q 1191 2003 1191 1497 
Q 1191 994 1439 701 
Q 1688 409 2113 409 
Q 2538 409 2786 701 
Q 3034 994 3034 1497 
Q 3034 2003 2786 2293 
Q 2538 2584 2113 2584 
z
M 3366 4563 
L 3366 3988 
Q 3128 4100 2886 4159 
Q 2644 4219 2406 4219 
Q 1781 4219 1451 3797 
Q 1122 3375 1075 2522 
Q 1259 2794 1537 2939 
Q 1816 3084 2150 3084 
Q 2853 3084 3261 2657 
Q 3669 2231 3669 1497 
Q 3669 778 3244 343 
Q 2819 -91 2113 -91 
Q 1303 -91 875 529 
Q 447 1150 447 2328 
Q 447 3434 972 4092 
Q 1497 4750 2381 4750 
Q 2619 4750 2861 4703 
Q 3103 4656 3366 4563 
z
" id="DejaVuSans-36" transform="scale(0.015625)"/>
       </defs>
       <use xlink:href="#DejaVuSans-36"/>
      </g>
     </g>
    </g>
    <g id="xtick_8">
     <g id="line2d_15">
      <path clip-path="url(#p000a9c9f98)" d="M 664.8 640.8 
L 664.8 86.4 
" style="fill:none;stroke:#0000ff;stroke-dasharray:0.5,0.825;stroke-dashoffset:0;stroke-width:0.5;"/>
     </g>
     <g id="line2d_16">
      <g>
       <use style="stroke:#000000;stroke-width:0.8;" x="664.8" xlink:href="#m51a755cc9e" y="640.8"/>
      </g>
     </g>
     <g id="text_8">
      <!-- 7 -->
      <g transform="translate(661.61875 655.398438)scale(0.1 -0.1)">
       <defs>
        <path d="M 525 4666 
L 3525 4666 
L 3525 4397 
L 1831 0 
L 1172 0 
L 2766 4134 
L 525 4134 
L 525 4666 
z
" id="DejaVuSans-37" transform="scale(0.015625)"/>
       </defs>
       <use xlink:href="#DejaVuSans-37"/>
      </g>
     </g>
    </g>
    <g id="xtick_9">
     <g id="line2d_17">
      <path clip-path="url(#p000a9c9f98)" d="M 739.2 640.8 
L 739.2 86.4 
" style="fill:none;stroke:#0000ff;stroke-dasharray:0.5,0.825;stroke-dashoffset:0;stroke-width:0.5;"/>
     </g>
     <g id="line2d_18">
      <g>
       <use style="stroke:#000000;stroke-width:0.8;" x="739.2" xlink:href="#m51a755cc9e" y="640.8"/>
      </g>
     </g>
     <g id="text_9">
      <!-- 8 -->
      <g transform="translate(736.01875 655.398438)scale(0.1 -0.1)">
       <defs>
        <path d="M 2034 2216 
Q 1584 2216 1326 1975 
Q 1069 1734 1069 1313 
Q 1069 891 1326 650 
Q 1584 409 2034 409 
Q 2484 409 2743 651 
Q 3003 894 3003 1313 
Q 3003 1734 2745 1975 
Q 2488 2216 2034 2216 
z
M 1403 2484 
Q 997 2584 770 2862 
Q 544 3141 544 3541 
Q 544 4100 942 4425 
Q 1341 4750 2034 4750 
Q 2731 4750 3128 4425 
Q 3525 4100 3525 3541 
Q 3525 3141 3298 2862 
Q 3072 2584 2669 2484 
Q 3125 2378 3379 2068 
Q 3634 1759 3634 1313 
Q 3634 634 3220 271 
Q 2806 -91 2034 -91 
Q 1263 -91 848 271 
Q 434 634 434 1313 
Q 434 1759 690 2068 
Q 947 2378 1403 2484 
z
M 1172 3481 
Q 1172 3119 1398 2916 
Q 1625 2713 2034 2713 
Q 2441 2713 2670 2916 
Q 2900 3119 2900 3481 
Q 2900 3844 2670 4047 
Q 2441 4250 2034 4250 
Q 1625 4250 1398 4047 
Q 1172 3844 1172 3481 
z
" id="DejaVuSans-38" transform="scale(0.015625)"/>
       </defs>
       <use xlink:href="#DejaVuSans-38"/>
      </g>
     </g>
    </g>
    <g id="xtick_10">
     <g id="line2d_19">
      <path clip-path="url(#p000a9c9f98)" d="M 813.6 640.8 
L 813.6 86.4 
" style="fill:none;stroke:#0000ff;stroke-dasharray:0.5,0.825;stroke-dashoffset:0;stroke-width:0.5;"/>
     </g>
     <g id="line2d_20">
      <g>
       <use style="stroke:#000000;stroke-width:0.8;" x="813.6" xlink:href="#m51a755cc9e" y="640.8"/>
      </g>
     </g>
     <g id="text_10">
      <!-- 9 -->
      <g transform="translate(810.41875 655.398438)scale(0.1 -0.1)">
       <defs>
        <path d="M 703 97 
L 703 672 
Q 941 559 1184 500 
Q 1428 441 1663 441 
Q 2288 441 2617 861 
Q 2947 1281 2994 2138 
Q 2813 1869 2534 1725 
Q 2256 1581 1919 1581 
Q 1219 1581 811 2004 
Q 403 2428 403 3163 
Q 403 3881 828 4315 
Q 1253 4750 1959 4750 
Q 2769 4750 3195 4129 
Q 3622 3509 3622 2328 
Q 3622 1225 3098 567 
Q 2575 -91 1691 -91 
Q 1453 -91 1209 -44 
Q 966 3 703 97 
z
M 1959 2075 
Q 2384 2075 2632 2365 
Q 2881 2656 2881 3163 
Q 2881 3666 2632 3958 
Q 2384 4250 1959 4250 
Q 1534 4250 1286 3958 
Q 1038 3666 1038 3163 
Q 1038 2656 1286 2365 
Q 1534 2075 1959 2075 
z
" id="DejaVuSans-39" transform="scale(0.015625)"/>
       </defs>
       <use xlink:href="#DejaVuSans-39"/>
      </g>
     </g>
    </g>
    <g id="xtick_11">
     <g id="line2d_21">
      <path clip-path="url(#p000a9c9f98)" d="M 888 640.8 
L 888 86.4 
" style="fill:none;stroke:#0000ff;stroke-dasharray:0.5,0.825;stroke-dashoffset:0;stroke-width:0.5;"/>
     </g>
     <g id="line2d_22">
      <g>
       <use style="stroke:#000000;stroke-width:0.8;" x="888" xlink:href="#m51a755cc9e" y="640.8"/>
      </g>
     </g>
     <g id="text_11">
      <!-- 10 -->
      <g transform="translate(881.6375 655.398438)scale(0.1 -0.1)">
       <use xlink:href="#DejaVuSans-31"/>
       <use x="63.623047" xlink:href="#DejaVuSans-30"/>
      </g>
     </g>
    </g>
    <g id="xtick_12">
     <g id="line2d_23">
      <path clip-path="url(#p000a9c9f98)" d="M 962.4 640.8 
L 962.4 86.4 
" style="fill:none;stroke:#0000ff;stroke-dasharray:0.5,0.825;stroke-dashoffset:0;stroke-width:0.5;"/>
     </g>
     <g id="line2d_24">
      <g>
       <use style="stroke:#000000;stroke-width:0.8;" x="962.4" xlink:href="#m51a755cc9e" y="640.8"/>
      </g>
     </g>
     <g id="text_12">
      <!-- 11 -->
      <g transform="translate(956.0375 655.398438)scale(0.1 -0.1)">
       <use xlink:href="#DejaVuSans-31"/>
       <use x="63.623047" xlink:href="#DejaVuSans-31"/>
      </g>
     </g>
    </g>
    <g id="xtick_13">
     <g id="line2d_25">
      <path clip-path="url(#p000a9c9f98)" d="M 1036.8 640.8 
L 1036.8 86.4 
" style="fill:none;stroke:#0000ff;stroke-dasharray:0.5,0.825;stroke-dashoffset:0;stroke-width:0.5;"/>
     </g>
     <g id="line2d_26">
      <g>
       <use style="stroke:#000000;stroke-width:0.8;" x="1036.8" xlink:href="#m51a755cc9e" y="640.8"/>
      </g>
     </g>
     <g id="text_13">
      <!-- 12 -->
      <g transform="translate(1030.4375 655.398438)scale(0.1 -0.1)">
       <use xlink:href="#DejaVuSans-31"/>
       <use x="63.623047" xlink:href="#DejaVuSans-32"/>
      </g>
     </g>
    </g>
    <g id="xtick_14">
     <g id="line2d_27">
      <path clip-path="url(#p000a9c9f98)" d="M 181.2 640.8 
L 181.2 86.4 
" style="fill:none;stroke:#000000;stroke-dasharray:0.5,0.825;stroke-dashoffset:0;stroke-width:0.5;"/>
     </g>
     <g id="line2d_28">
      <defs>
       <path d="M 0 0 
L 0 2 
" id="m2edf4f6878" style="stroke:#000000;stroke-width:0.6;"/>
      </defs>
      <g>
       <use style="stroke:#000000;stroke-width:0.6;" x="181.2" xlink:href="#m2edf4f6878" y="640.8"/>
      </g>
     </g>
    </g>
    <g id="xtick_15">
     <g id="line2d_29">
      <path clip-path="url(#p000a9c9f98)" d="M 255.6 640.8 
L 255.6 86.4 
" style="fill:none;stroke:#000000;stroke-dasharray:0.5,0.825;stroke-dashoffset:0;stroke-width:0.5;"/>
     </g>
     <g id="line2d_30">
      <g>
       <use style="stroke:#000000;stroke-width:0.6;" x="255.6" xlink:href="#m2edf4f6878" y="640.8"/>
      </g>
     </g>
    </g>
    <g id="xtick_16">
     <g id="line2d_31">
      <path clip-path="url(#p000a9c9f98)" d="M 330 640.8 
L 330 86.4 
" style="fill:none;stroke:#000000;stroke-dasharray:0.5,0.825;stroke-dashoffset:0;stroke-width:0.5;"/>
     </g>
     <g id="line2d_32">
      <g>
       <use style="stroke:#000000;stroke-width:0.6;" x="330" xlink:href="#m2edf4f6878" y="640.8"/>
      </g>
     </g>
    </g>
    <g id="xtick_17">
     <g id="line2d_33">
      <path clip-path="url(#p000a9c9f98)" d="M 404.4 640.8 
L 404.4 86.4 
" style="fill:none;stroke:#000000;stroke-dasharray:0.5,0.825;stroke-dashoffset:0;stroke-width:0.5;"/>
     </g>
     <g id="line2d_34">
      <g>
       <use style="stroke:#000000;stroke-width:0.6;" x="404.4" xlink:href="#m2edf4f6878" y="640.8"/>
      </g>
     </g>
    </g>
    <g id="xtick_18">
     <g id="line2d_35">
      <path clip-path="url(#p000a9c9f98)" d="M 478.8 640.8 
L 478.8 86.4 
" style="fill:none;stroke:#000000;stroke-dasharray:0.5,0.825;stroke-dashoffset:0;stroke-width:0.5;"/>
     </g>
     <g id="line2d_36">
      <g>
       <use style="stroke:#000000;stroke-width:0.6;" x="478.8" xlink:href="#m2edf4f6878" y="640.8"/>
      </g>
     </g>
    </g>
    <g id="xtick_19">
     <g id="line2d_37">
      <path clip-path="url(#p000a9c9f98)" d="M 553.2 640.8 
L 553.2 86.4 
" style="fill:none;stroke:#000000;stroke-dasharray:0.5,0.825;stroke-dashoffset:0;stroke-width:0.5;"/>
     </g>
     <g id="line2d_38">
      <g>
       <use style="stroke:#000000;stroke-width:0.6;" x="553.2" xlink:href="#m2edf4f6878" y="640.8"/>
      </g>
     </g>
    </g>
    <g id="xtick_20">
     <g id="line2d_39">
      <path clip-path="url(#p000a9c9f98)" d="M 627.6 640.8 
L 627.6 86.4 
" style="fill:none;stroke:#000000;stroke-dasharray:0.5,0.825;stroke-dashoffset:0;stroke-width:0.5;"/>
     </g>
     <g id="line2d_40">
      <g>
       <use style="stroke:#000000;stroke-width:0.6;" x="627.6" xlink:href="#m2edf4f6878" y="640.8"/>
      </g>
     </g>
    </g>
    <g id="xtick_21">
     <g id="line2d_41">
      <path clip-path="url(#p000a9c9f98)" d="M 702 640.8 
L 702 86.4 
" style="fill:none;stroke:#000000;stroke-dasharray:0.5,0.825;stroke-dashoffset:0;stroke-width:0.5;"/>
     </g>
     <g id="line2d_42">
      <g>
       <use style="stroke:#000000;stroke-width:0.6;" x="702" xlink:href="#m2edf4f6878" y="640.8"/>
      </g>
     </g>
    </g>
    <g id="xtick_22">
     <g id="line2d_43">
      <path clip-path="url(#p000a9c9f98)" d="M 776.4 640.8 
L 776.4 86.4 
" style="fill:none;stroke:#000000;stroke-dasharray:0.5,0.825;stroke-dashoffset:0;stroke-width:0.5;"/>
     </g>
     <g id="line2d_44">
      <g>
       <use style="stroke:#000000;stroke-width:0.6;" x="776.4" xlink:href="#m2edf4f6878" y="640.8"/>
      </g>
     </g>
    </g>
    <g id="xtick_23">
     <g id="line2d_45">
      <path clip-path="url(#p000a9c9f98)" d="M 850.8 640.8 
L 850.8 86.4 
" style="fill:none;stroke:#000000;stroke-dasharray:0.5,0.825;stroke-dashoffset:0;stroke-width:0.5;"/>
     </g>
     <g id="line2d_46">
      <g>
       <use style="stroke:#000000;stroke-width:0.6;" x="850.8" xlink:href="#m2edf4f6878" y="640.8"/>
      </g>
     </g>
    </g>
    <g id="xtick_24">
     <g id="line2d_47">
      <path clip-path="url(#p000a9c9f98)" d="M 925.2 640.8 
L 925.2 86.4 
" style="fill:none;stroke:#000000;stroke-dasharray:0.5,0.825;stroke-dashoffset:0;stroke-width:0.5;"/>
     </g>
     <g id="line2d_48">
      <g>
       <use style="stroke:#000000;stroke-width:0.6;" x="925.2" xlink:href="#m2edf4f6878" y="640.8"/>
      </g>
     </g>
    </g>
    <g id="xtick_25">
     <g id="line2d_49">
      <path clip-path="url(#p000a9c9f98)" d="M 999.6 640.8 
L 999.6 86.4 
" style="fill:none;stroke:#000000;stroke-dasharray:0.5,0.825;stroke-dashoffset:0;stroke-width:0.5;"/>
     </g>
     <g id="line2d_50">
      <g>
       <use style="stroke:#000000;stroke-width:0.6;" x="999.6" xlink:href="#m2edf4f6878" y="640.8"/>
      </g>
     </g>
    </g>
    <g id="text_14">
     <!-- Время, с -->
     <g transform="translate(554.57875 673.635625)scale(0.16 -0.16)">
      <defs>
       <path d="M 1259 2228 
L 1259 519 
L 2272 519 
Q 2781 519 3026 730 
Q 3272 941 3272 1375 
Q 3272 1813 3026 2020 
Q 2781 2228 2272 2228 
L 1259 2228 
z
M 1259 4147 
L 1259 2741 
L 2194 2741 
Q 2656 2741 2882 2914 
Q 3109 3088 3109 3444 
Q 3109 3797 2882 3972 
Q 2656 4147 2194 4147 
L 1259 4147 
z
M 628 4666 
L 2241 4666 
Q 2963 4666 3353 4366 
Q 3744 4066 3744 3513 
Q 3744 3084 3544 2831 
Q 3344 2578 2956 2516 
Q 3422 2416 3680 2098 
Q 3938 1781 3938 1306 
Q 3938 681 3513 340 
Q 3088 0 2303 0 
L 628 0 
L 628 4666 
z
" id="DejaVuSans-412" transform="scale(0.015625)"/>
       <path d="M 1159 525 
L 1159 -1331 
L 581 -1331 
L 581 3500 
L 1159 3500 
L 1159 2969 
Q 1341 3281 1617 3432 
Q 1894 3584 2278 3584 
Q 2916 3584 3314 3078 
Q 3713 2572 3713 1747 
Q 3713 922 3314 415 
Q 2916 -91 2278 -91 
Q 1894 -91 1617 61 
Q 1341 213 1159 525 
z
M 3116 1747 
Q 3116 2381 2855 2742 
Q 2594 3103 2138 3103 
Q 1681 3103 1420 2742 
Q 1159 2381 1159 1747 
Q 1159 1113 1420 752 
Q 1681 391 2138 391 
Q 2594 391 2855 752 
Q 3116 1113 3116 1747 
z
" id="DejaVuSans-440" transform="scale(0.015625)"/>
       <path d="M 3597 1894 
L 3597 1613 
L 953 1613 
Q 991 1019 1311 708 
Q 1631 397 2203 397 
Q 2534 397 2845 478 
Q 3156 559 3463 722 
L 3463 178 
Q 3153 47 2828 -22 
Q 2503 -91 2169 -91 
Q 1331 -91 842 396 
Q 353 884 353 1716 
Q 353 2575 817 3079 
Q 1281 3584 2069 3584 
Q 2775 3584 3186 3129 
Q 3597 2675 3597 1894 
z
M 3022 2063 
Q 3016 2534 2758 2815 
Q 2500 3097 2075 3097 
Q 1594 3097 1305 2825 
Q 1016 2553 972 2059 
L 3022 2063 
z
" id="DejaVuSans-435" transform="scale(0.015625)"/>
       <path d="M 581 3500 
L 1422 3500 
L 2416 1156 
L 3413 3500 
L 4247 3500 
L 4247 0 
L 3669 0 
L 3669 2950 
L 2703 672 
L 2128 672 
L 1159 2950 
L 1159 0 
L 581 0 
L 581 3500 
z
" id="DejaVuSans-43c" transform="scale(0.015625)"/>
       <path d="M 1181 2491 
Q 1181 2231 1381 2084 
Q 1581 1938 1953 1938 
L 2728 1938 
L 2728 3041 
L 1953 3041 
Q 1581 3041 1381 2897 
Q 1181 2753 1181 2491 
z
M 363 0 
L 1431 1534 
Q 1069 1616 828 1830 
Q 588 2044 588 2491 
Q 588 2997 923 3248 
Q 1259 3500 1938 3500 
L 3306 3500 
L 3306 0 
L 2728 0 
L 2728 1478 
L 2013 1478 
L 981 0 
L 363 0 
z
" id="DejaVuSans-44f" transform="scale(0.015625)"/>
       <path d="M 750 794 
L 1409 794 
L 1409 256 
L 897 -744 
L 494 -744 
L 750 256 
L 750 794 
z
" id="DejaVuSans-2c" transform="scale(0.015625)"/>
       <path id="DejaVuSans-20" transform="scale(0.015625)"/>
       <path d="M 3122 3366 
L 3122 2828 
Q 2878 2963 2633 3030 
Q 2388 3097 2138 3097 
Q 1578 3097 1268 2742 
Q 959 2388 959 1747 
Q 959 1106 1268 751 
Q 1578 397 2138 397 
Q 2388 397 2633 464 
Q 2878 531 3122 666 
L 3122 134 
Q 2881 22 2623 -34 
Q 2366 -91 2075 -91 
Q 1284 -91 818 406 
Q 353 903 353 1747 
Q 353 2603 823 3093 
Q 1294 3584 2113 3584 
Q 2378 3584 2631 3529 
Q 2884 3475 3122 3366 
z
" id="DejaVuSans-441" transform="scale(0.015625)"/>
      </defs>
      <use xlink:href="#DejaVuSans-412"/>
      <use x="68.603516" xlink:href="#DejaVuSans-440"/>
      <use x="132.080078" xlink:href="#DejaVuSans-435"/>
      <use x="193.603516" xlink:href="#DejaVuSans-43c"/>
      <use x="269.042969" xlink:href="#DejaVuSans-44f"/>
      <use x="329.199219" xlink:href="#DejaVuSans-2c"/>
      <use x="360.986328" xlink:href="#DejaVuSans-20"/>
      <use x="392.773438" xlink:href="#DejaVuSans-441"/>
     </g>
    </g>
   </g>
   <g id="matplotlib.axis_2">
    <g id="ytick_1">
     <g id="line2d_51">
      <path clip-path="url(#p000a9c9f98)" d="M 144 640.8 
L 1036.8 640.8 
" style="fill:none;stroke:#0000ff;stroke-dasharray:0.5,0.825;stroke-dashoffset:0;stroke-width:0.5;"/>
     </g>
     <g id="line2d_52">
      <defs>
       <path d="M 0 0 
L -3.5 0 
" id="m0023806c9d" style="stroke:#000000;stroke-width:0.8;"/>
      </defs>
      <g>
       <use style="stroke:#000000;stroke-width:0.8;" x="144" xlink:href="#m0023806c9d" y="640.8"/>
      </g>
     </g>
     <g id="text_15">
      <!-- 0.0 -->
      <g transform="translate(121.096875 644.599219)scale(0.1 -0.1)">
       <defs>
        <path d="M 684 794 
L 1344 794 
L 1344 0 
L 684 0 
L 684 794 
z
" id="DejaVuSans-2e" transform="scale(0.015625)"/>
       </defs>
       <use xlink:href="#DejaVuSans-30"/>
       <use x="63.623047" xlink:href="#DejaVuSans-2e"/>
       <use x="95.410156" xlink:href="#DejaVuSans-30"/>
      </g>
     </g>
    </g>
    <g id="ytick_2">
     <g id="line2d_53">
      <path clip-path="url(#p000a9c9f98)" d="M 144 561.6 
L 1036.8 561.6 
" style="fill:none;stroke:#0000ff;stroke-dasharray:0.5,0.825;stroke-dashoffset:0;stroke-width:0.5;"/>
     </g>
     <g id="line2d_54">
      <g>
       <use style="stroke:#000000;stroke-width:0.8;" x="144" xlink:href="#m0023806c9d" y="561.6"/>
      </g>
     </g>
     <g id="text_16">
      <!-- 0.5 -->
      <g transform="translate(121.096875 565.399219)scale(0.1 -0.1)">
       <use xlink:href="#DejaVuSans-30"/>
       <use x="63.623047" xlink:href="#DejaVuSans-2e"/>
       <use x="95.410156" xlink:href="#DejaVuSans-35"/>
      </g>
     </g>
    </g>
    <g id="ytick_3">
     <g id="line2d_55">
      <path clip-path="url(#p000a9c9f98)" d="M 144 482.4 
L 1036.8 482.4 
" style="fill:none;stroke:#0000ff;stroke-dasharray:0.5,0.825;stroke-dashoffset:0;stroke-width:0.5;"/>
     </g>
     <g id="line2d_56">
      <g>
       <use style="stroke:#000000;stroke-width:0.8;" x="144" xlink:href="#m0023806c9d" y="482.4"/>
      </g>
     </g>
     <g id="text_17">
      <!-- 1.0 -->
      <g transform="translate(121.096875 486.199219)scale(0.1 -0.1)">
       <use xlink:href="#DejaVuSans-31"/>
       <use x="63.623047" xlink:href="#DejaVuSans-2e"/>
       <use x="95.410156" xlink:href="#DejaVuSans-30"/>
      </g>
     </g>
    </g>
    <g id="ytick_4">
     <g id="line2d_57">
      <path clip-path="url(#p000a9c9f98)" d="M 144 403.2 
L 1036.8 403.2 
" style="fill:none;stroke:#0000ff;stroke-dasharray:0.5,0.825;stroke-dashoffset:0;stroke-width:0.5;"/>
     </g>
     <g id="line2d_58">
      <g>
       <use style="stroke:#000000;stroke-width:0.8;" x="144" xlink:href="#m0023806c9d" y="403.2"/>
      </g>
     </g>
     <g id="text_18">
      <!-- 1.5 -->
      <g transform="translate(121.096875 406.999219)scale(0.1 -0.1)">
       <use xlink:href="#DejaVuSans-31"/>
       <use x="63.623047" xlink:href="#DejaVuSans-2e"/>
       <use x="95.410156" xlink:href="#DejaVuSans-35"/>
      </g>
     </g>
    </g>
    <g id="ytick_5">
     <g id="line2d_59">
      <path clip-path="url(#p000a9c9f98)" d="M 144 324 
L 1036.8 324 
" style="fill:none;stroke:#0000ff;stroke-dasharray:0.5,0.825;stroke-dashoffset:0;stroke-width:0.5;"/>
     </g>
     <g id="line2d_60">
      <g>
       <use style="stroke:#000000;stroke-width:0.8;" x="144" xlink:href="#m0023806c9d" y="324"/>
      </g>
     </g>
     <g id="text_19">
      <!-- 2.0 -->
      <g transform="translate(121.096875 327.799219)scale(0.1 -0.1)">
       <use xlink:href="#DejaVuSans-32"/>
       <use x="63.623047" xlink:href="#DejaVuSans-2e"/>
       <use x="95.410156" xlink:href="#DejaVuSans-30"/>
      </g>
     </g>
    </g>
    <g id="ytick_6">
     <g id="line2d_61">
      <path clip-path="url(#p000a9c9f98)" d="M 144 244.8 
L 1036.8 244.8 
" style="fill:none;stroke:#0000ff;stroke-dasharray:0.5,0.825;stroke-dashoffset:0;stroke-width:0.5;"/>
     </g>
     <g id="line2d_62">
      <g>
       <use style="stroke:#000000;stroke-width:0.8;" x="144" xlink:href="#m0023806c9d" y="244.8"/>
      </g>
     </g>
     <g id="text_20">
      <!-- 2.5 -->
      <g transform="translate(121.096875 248.599219)scale(0.1 -0.1)">
       <use xlink:href="#DejaVuSans-32"/>
       <use x="63.623047" xlink:href="#DejaVuSans-2e"/>
       <use x="95.410156" xlink:href="#DejaVuSans-35"/>
      </g>
     </g>
    </g>
    <g id="ytick_7">
     <g id="line2d_63">
      <path clip-path="url(#p000a9c9f98)" d="M 144 165.6 
L 1036.8 165.6 
" style="fill:none;stroke:#0000ff;stroke-dasharray:0.5,0.825;stroke-dashoffset:0;stroke-width:0.5;"/>
     </g>
     <g id="line2d_64">
      <g>
       <use style="stroke:#000000;stroke-width:0.8;" x="144" xlink:href="#m0023806c9d" y="165.6"/>
      </g>
     </g>
     <g id="text_21">
      <!-- 3.0 -->
      <g transform="translate(121.096875 169.399219)scale(0.1 -0.1)">
       <use xlink:href="#DejaVuSans-33"/>
       <use x="63.623047" xlink:href="#DejaVuSans-2e"/>
       <use x="95.410156" xlink:href="#DejaVuSans-30"/>
      </g>
     </g>
    </g>
    <g id="ytick_8">
     <g id="line2d_65">
      <path clip-path="url(#p000a9c9f98)" d="M 144 86.4 
L 1036.8 86.4 
" style="fill:none;stroke:#0000ff;stroke-dasharray:0.5,0.825;stroke-dashoffset:0;stroke-width:0.5;"/>
     </g>
     <g id="line2d_66">
      <g>
       <use style="stroke:#000000;stroke-width:0.8;" x="144" xlink:href="#m0023806c9d" y="86.4"/>
      </g>
     </g>
     <g id="text_22">
      <!-- 3.5 -->
      <g transform="translate(121.096875 90.199219)scale(0.1 -0.1)">
       <use xlink:href="#DejaVuSans-33"/>
       <use x="63.623047" xlink:href="#DejaVuSans-2e"/>
       <use x="95.410156" xlink:href="#DejaVuSans-35"/>
      </g>
     </g>
    </g>
    <g id="ytick_9">
     <g id="line2d_67">
      <path clip-path="url(#p000a9c9f98)" d="M 144 601.2 
L 1036.8 601.2 
" style="fill:none;stroke:#000000;stroke-dasharray:0.5,0.825;stroke-dashoffset:0;stroke-width:0.5;"/>
     </g>
     <g id="line2d_68">
      <defs>
       <path d="M 0 0 
L -2 0 
" id="mf902f84c4e" style="stroke:#000000;stroke-width:0.6;"/>
      </defs>
      <g>
       <use style="stroke:#000000;stroke-width:0.6;" x="144" xlink:href="#mf902f84c4e" y="601.2"/>
      </g>
     </g>
    </g>
    <g id="ytick_10">
     <g id="line2d_69">
      <path clip-path="url(#p000a9c9f98)" d="M 144 522 
L 1036.8 522 
" style="fill:none;stroke:#000000;stroke-dasharray:0.5,0.825;stroke-dashoffset:0;stroke-width:0.5;"/>
     </g>
     <g id="line2d_70">
      <g>
       <use style="stroke:#000000;stroke-width:0.6;" x="144" xlink:href="#mf902f84c4e" y="522"/>
      </g>
     </g>
    </g>
    <g id="ytick_11">
     <g id="line2d_71">
      <path clip-path="url(#p000a9c9f98)" d="M 144 442.8 
L 1036.8 442.8 
" style="fill:none;stroke:#000000;stroke-dasharray:0.5,0.825;stroke-dashoffset:0;stroke-width:0.5;"/>
     </g>
     <g id="line2d_72">
      <g>
       <use style="stroke:#000000;stroke-width:0.6;" x="144" xlink:href="#mf902f84c4e" y="442.8"/>
      </g>
     </g>
    </g>
    <g id="ytick_12">
     <g id="line2d_73">
      <path clip-path="url(#p000a9c9f98)" d="M 144 363.6 
L 1036.8 363.6 
" style="fill:none;stroke:#000000;stroke-dasharray:0.5,0.825;stroke-dashoffset:0;stroke-width:0.5;"/>
     </g>
     <g id="line2d_74">
      <g>
       <use style="stroke:#000000;stroke-width:0.6;" x="144" xlink:href="#mf902f84c4e" y="363.6"/>
      </g>
     </g>
    </g>
    <g id="ytick_13">
     <g id="line2d_75">
      <path clip-path="url(#p000a9c9f98)" d="M 144 284.4 
L 1036.8 284.4 
" style="fill:none;stroke:#000000;stroke-dasharray:0.5,0.825;stroke-dashoffset:0;stroke-width:0.5;"/>
     </g>
     <g id="line2d_76">
      <g>
       <use style="stroke:#000000;stroke-width:0.6;" x="144" xlink:href="#mf902f84c4e" y="284.4"/>
      </g>
     </g>
    </g>
    <g id="ytick_14">
     <g id="line2d_77">
      <path clip-path="url(#p000a9c9f98)" d="M 144 205.2 
L 1036.8 205.2 
" style="fill:none;stroke:#000000;stroke-dasharray:0.5,0.825;stroke-dashoffset:0;stroke-width:0.5;"/>
     </g>
     <g id="line2d_78">
      <g>
       <use style="stroke:#000000;stroke-width:0.6;" x="144" xlink:href="#mf902f84c4e" y="205.2"/>
      </g>
     </g>
    </g>
    <g id="ytick_15">
     <g id="line2d_79">
      <path clip-path="url(#p000a9c9f98)" d="M 144 126 
L 1036.8 126 
" style="fill:none;stroke:#000000;stroke-dasharray:0.5,0.825;stroke-dashoffset:0;stroke-width:0.5;"/>
     </g>
     <g id="line2d_80">
      <g>
       <use style="stroke:#000000;stroke-width:0.6;" x="144" xlink:href="#mf902f84c4e" y="126"/>
      </g>
     </g>
    </g>
    <g id="text_23">
     <!-- Напряжение, В -->
     <g transform="translate(113.769375 427.695)rotate(-90)scale(0.16 -0.16)">
      <defs>
       <path d="M 628 4666 
L 1259 4666 
L 1259 2753 
L 3553 2753 
L 3553 4666 
L 4184 4666 
L 4184 0 
L 3553 0 
L 3553 2222 
L 1259 2222 
L 1259 0 
L 628 0 
L 628 4666 
z
" id="DejaVuSans-41d" transform="scale(0.015625)"/>
       <path d="M 2194 1759 
Q 1497 1759 1228 1600 
Q 959 1441 959 1056 
Q 959 750 1161 570 
Q 1363 391 1709 391 
Q 2188 391 2477 730 
Q 2766 1069 2766 1631 
L 2766 1759 
L 2194 1759 
z
M 3341 1997 
L 3341 0 
L 2766 0 
L 2766 531 
Q 2569 213 2275 61 
Q 1981 -91 1556 -91 
Q 1019 -91 701 211 
Q 384 513 384 1019 
Q 384 1609 779 1909 
Q 1175 2209 1959 2209 
L 2766 2209 
L 2766 2266 
Q 2766 2663 2505 2880 
Q 2244 3097 1772 3097 
Q 1472 3097 1187 3025 
Q 903 2953 641 2809 
L 641 3341 
Q 956 3463 1253 3523 
Q 1550 3584 1831 3584 
Q 2591 3584 2966 3190 
Q 3341 2797 3341 1997 
z
" id="DejaVuSans-430" transform="scale(0.015625)"/>
       <path d="M 3603 3500 
L 3603 0 
L 3025 0 
L 3025 3041 
L 1159 3041 
L 1159 0 
L 581 0 
L 581 3500 
L 3603 3500 
z
" id="DejaVuSans-43f" transform="scale(0.015625)"/>
       <path d="M 2597 3500 
L 3169 3500 
L 3169 1856 
L 4697 3500 
L 5366 3500 
L 4109 2153 
L 5547 0 
L 4931 0 
L 3753 1769 
L 3169 1141 
L 3169 0 
L 2597 0 
L 2597 1141 
L 2013 1769 
L 834 0 
L 219 0 
L 1656 2153 
L 400 3500 
L 1069 3500 
L 2597 1856 
L 2597 3500 
z
" id="DejaVuSans-436" transform="scale(0.015625)"/>
       <path d="M 581 3500 
L 1159 3500 
L 1159 2072 
L 3025 2072 
L 3025 3500 
L 3603 3500 
L 3603 0 
L 3025 0 
L 3025 1613 
L 1159 1613 
L 1159 0 
L 581 0 
L 581 3500 
z
" id="DejaVuSans-43d" transform="scale(0.015625)"/>
       <path d="M 3578 3500 
L 3578 0 
L 3006 0 
L 3006 2809 
L 1319 0 
L 581 0 
L 581 3500 
L 1153 3500 
L 1153 697 
L 2838 3500 
L 3578 3500 
z
" id="DejaVuSans-438" transform="scale(0.015625)"/>
      </defs>
      <use xlink:href="#DejaVuSans-41d"/>
      <use x="75.195312" xlink:href="#DejaVuSans-430"/>
      <use x="136.474609" xlink:href="#DejaVuSans-43f"/>
      <use x="201.855469" xlink:href="#DejaVuSans-440"/>
      <use x="265.332031" xlink:href="#DejaVuSans-44f"/>
      <use x="325.488281" xlink:href="#DejaVuSans-436"/>
      <use x="415.576172" xlink:href="#DejaVuSans-435"/>
      <use x="477.099609" xlink:href="#DejaVuSans-43d"/>
      <use x="542.480469" xlink:href="#DejaVuSans-438"/>
      <use x="607.470703" xlink:href="#DejaVuSans-435"/>
      <use x="668.994141" xlink:href="#DejaVuSans-2c"/>
      <use x="700.78125" xlink:href="#DejaVuSans-20"/>
      <use x="732.568359" xlink:href="#DejaVuSans-412"/>
     </g>
    </g>
   </g>
   <g id="line2d_81">
    <path clip-path="url(#p000a9c9f98)" d="M 144 602.004375 
L 150.053181 593.836875 
L 156.106362 585.669375 
L 162.159543 577.501875 
L 168.212724 569.334375 
L 174.265906 561.166875 
L 180.319087 552.999375 
L 186.372268 546.87375 
L 192.425449 538.70625 
L 198.47863 532.580625 
L 204.531811 524.413125 
L 210.584992 520.329375 
L 216.638173 512.161875 
L 222.691354 503.994375 
L 228.744535 495.826875 
L 234.797717 489.70125 
L 240.850898 483.575625 
L 246.904079 479.491875 
L 252.95726 471.324375 
L 259.010441 463.156875 
L 265.063622 459.073125 
L 271.116803 452.9475 
L 277.169984 446.821875 
L 283.223165 440.69625 
L 289.276346 434.570625 
L 295.329528 430.486875 
L 301.382709 424.36125 
L 307.43589 418.235625 
L 313.489071 414.151875 
L 319.542252 410.068125 
L 325.595433 403.9425 
L 331.648614 397.816875 
L 337.701795 393.733125 
L 343.754976 389.649375 
L 349.808157 385.565625 
L 355.861339 381.481875 
L 361.91452 381.481875 
L 367.967701 373.314375 
L 374.020882 365.146875 
L 380.074063 361.063125 
L 386.127244 354.9375 
L 392.180425 348.811875 
L 398.233606 344.728125 
L 404.286787 340.644375 
L 410.339968 334.51875 
L 416.39315 328.393125 
L 422.446331 324.309375 
L 428.499512 320.225625 
L 434.552693 316.141875 
L 440.605874 312.058125 
L 446.659055 307.974375 
L 452.712236 301.84875 
L 458.765417 299.806875 
L 464.818598 293.68125 
L 470.87178 289.5975 
L 476.924961 285.51375 
L 482.978142 283.471875 
L 489.031323 279.388125 
L 495.084504 275.304375 
L 501.137685 271.220625 
L 507.190866 267.136875 
L 513.244047 267.136875 
L 519.297228 263.053125 
L 525.350409 258.969375 
L 531.403591 256.9275 
L 537.456772 254.885625 
L 543.509953 252.84375 
L 549.563134 250.801875 
L 555.616315 246.718125 
L 561.669496 242.634375 
L 567.722677 240.5925 
L 573.775858 236.50875 
L 579.829039 234.466875 
L 585.88222 234.466875 
L 591.935402 230.383125 
L 597.988583 230.383125 
L 604.041764 226.299375 
L 610.094945 226.299375 
L 616.148126 224.2575 
L 622.201307 224.2575 
L 628.254488 222.215625 
L 634.307669 222.215625 
L 640.36085 220.17375 
L 646.414031 220.17375 
L 652.467213 220.17375 
L 658.520394 220.17375 
" style="fill:none;stroke:#0000ff;stroke-linecap:square;stroke-width:1.5;"/>
   </g>
   <g id="line2d_82">
    <path clip-path="url(#p000a9c9f98)" d="M 664.573575 218.131875 
L 670.626756 224.2575 
L 676.679937 226.299375 
L 682.733118 230.383125 
L 688.786299 232.425 
L 694.83948 236.50875 
L 700.892661 238.550625 
L 706.945842 240.5925 
L 712.999024 242.634375 
L 719.052205 242.634375 
L 725.105386 244.67625 
L 731.158567 246.718125 
L 737.211748 246.718125 
L 743.264929 248.76 
L 749.31811 248.76 
L 755.371291 248.76 
L 761.424472 248.76 
L 767.477654 252.84375 
L 773.530835 254.885625 
L 779.584016 256.9275 
L 785.637197 258.969375 
L 791.690378 261.01125 
L 797.743559 263.053125 
L 803.79674 265.095 
L 809.849921 265.095 
L 815.903102 267.136875 
L 821.956283 269.17875 
L 828.009465 269.17875 
L 834.062646 271.220625 
L 840.115827 271.220625 
L 846.169008 273.2625 
L 852.222189 273.2625 
L 858.27537 275.304375 
L 864.328551 275.304375 
L 870.381732 275.304375 
L 876.434913 277.34625 
L 882.488094 277.34625 
L 888.541276 277.34625 
L 894.594457 277.34625 
L 900.647638 279.388125 
L 906.700819 279.388125 
L 912.754 279.388125 
L 918.807181 279.388125 
L 924.860362 279.388125 
L 930.913543 279.388125 
L 936.966724 281.43 
L 943.019905 281.43 
L 949.073087 281.43 
L 955.126268 281.43 
L 961.179449 281.43 
L 967.23263 281.43 
L 973.285811 281.43 
L 979.338992 640.8 
" style="fill:none;stroke:#ff0000;stroke-linecap:square;stroke-width:1.5;"/>
   </g>
   <g id="line2d_83">
    <path clip-path="url(#p000a9c9f98)" d="M 664.573575 640.8 
L 664.573575 218.131875 
" style="fill:none;stroke:#008000;stroke-dasharray:5.55,2.4;stroke-dashoffset:0;stroke-width:1.5;"/>
   </g>
   <g id="line2d_84">
    <path clip-path="url(#p000a9c9f98)" d="M 144 218.131875 
L 664.573575 218.131875 
" style="fill:none;stroke:#008000;stroke-dasharray:5.55,2.4;stroke-dashoffset:0;stroke-width:1.5;"/>
   </g>
   <g id="patch_3">
    <path d="M 144 640.8 
L 144 86.4 
" style="fill:none;stroke:#000000;stroke-linecap:square;stroke-linejoin:miter;stroke-width:0.8;"/>
   </g>
   <g id="patch_4">
    <path d="M 1036.8 640.8 
L 1036.8 86.4 
" style="fill:none;stroke:#000000;stroke-linecap:square;stroke-linejoin:miter;stroke-width:0.8;"/>
   </g>
   <g id="patch_5">
    <path d="M 144 640.8 
L 1036.8 640.8 
" style="fill:none;stroke:#000000;stroke-linecap:square;stroke-linejoin:miter;stroke-width:0.8;"/>
   </g>
   <g id="patch_6">
    <path d="M 144 86.4 
L 1036.8 86.4 
" style="fill:none;stroke:#000000;stroke-linecap:square;stroke-linejoin:miter;stroke-width:0.8;"/>
   </g>
   <g id="text_24">
    <!-- 7.0 -->
    <g transform="translate(672.013575 632.88)scale(0.12 -0.12)">
     <use xlink:href="#DejaVuSans-37"/>
     <use x="63.623047" xlink:href="#DejaVuSans-2e"/>
     <use x="95.410156" xlink:href="#DejaVuSans-30"/>
    </g>
   </g>
   <g id="text_25">
    <!-- 2.67 -->
    <g transform="translate(151.44 210.211875)scale(0.12 -0.12)">
     <use xlink:href="#DejaVuSans-32"/>
     <use x="63.623047" xlink:href="#DejaVuSans-2e"/>
     <use x="95.410156" xlink:href="#DejaVuSans-36"/>
     <use x="159.033203" xlink:href="#DejaVuSans-37"/>
    </g>
   </g>
   <g id="text_26">
    <!-- Время зарядки: 7.0 s -->
    <g style="fill:#0000ff;" transform="translate(344.766787 429.465937)scale(0.14 -0.14)">
     <defs>
      <path d="M 2206 1888 
Q 2594 1813 2809 1584 
Q 3025 1356 3025 1019 
Q 3025 478 2622 193 
Q 2219 -91 1475 -91 
Q 1225 -91 961 -47 
Q 697 -3 416 84 
L 416 619 
Q 638 503 903 445 
Q 1169 388 1459 388 
Q 1931 388 2195 563 
Q 2459 738 2459 1019 
Q 2459 1294 2225 1461 
Q 1991 1628 1563 1628 
L 1100 1628 
L 1100 2103 
L 1584 2103 
Q 1947 2103 2158 2242 
Q 2369 2381 2369 2600 
Q 2369 2800 2151 2944 
Q 1934 3088 1563 3088 
Q 1341 3088 1089 3047 
Q 838 3006 534 2916 
L 534 3438 
Q 841 3513 1106 3550 
Q 1372 3588 1609 3588 
Q 2222 3588 2576 3342 
Q 2931 3097 2931 2656 
Q 2931 2366 2743 2164 
Q 2556 1963 2206 1888 
z
" id="DejaVuSans-437" transform="scale(0.015625)"/>
      <path d="M 1384 459 
L 3053 459 
L 3053 3041 
L 1844 3041 
L 1844 2603 
Q 1844 1316 1475 628 
L 1384 459 
z
M 550 459 
Q 834 584 959 850 
Q 1266 1509 1266 2838 
L 1266 3500 
L 3631 3500 
L 3631 459 
L 4091 459 
L 4091 -884 
L 3631 -884 
L 3631 0 
L 794 0 
L 794 -884 
L 334 -884 
L 334 459 
L 550 459 
z
" id="DejaVuSans-434" transform="scale(0.015625)"/>
      <path d="M 581 3500 
L 1153 3500 
L 1153 1856 
L 2775 3500 
L 3481 3500 
L 2144 2147 
L 3653 0 
L 3009 0 
L 1769 1766 
L 1153 1141 
L 1153 0 
L 581 0 
L 581 3500 
z
" id="DejaVuSans-43a" transform="scale(0.015625)"/>
      <path d="M 750 794 
L 1409 794 
L 1409 0 
L 750 0 
L 750 794 
z
M 750 3309 
L 1409 3309 
L 1409 2516 
L 750 2516 
L 750 3309 
z
" id="DejaVuSans-3a" transform="scale(0.015625)"/>
      <path d="M 2834 3397 
L 2834 2853 
Q 2591 2978 2328 3040 
Q 2066 3103 1784 3103 
Q 1356 3103 1142 2972 
Q 928 2841 928 2578 
Q 928 2378 1081 2264 
Q 1234 2150 1697 2047 
L 1894 2003 
Q 2506 1872 2764 1633 
Q 3022 1394 3022 966 
Q 3022 478 2636 193 
Q 2250 -91 1575 -91 
Q 1294 -91 989 -36 
Q 684 19 347 128 
L 347 722 
Q 666 556 975 473 
Q 1284 391 1588 391 
Q 1994 391 2212 530 
Q 2431 669 2431 922 
Q 2431 1156 2273 1281 
Q 2116 1406 1581 1522 
L 1381 1569 
Q 847 1681 609 1914 
Q 372 2147 372 2553 
Q 372 3047 722 3315 
Q 1072 3584 1716 3584 
Q 2034 3584 2315 3537 
Q 2597 3491 2834 3397 
z
" id="DejaVuSans-73" transform="scale(0.015625)"/>
     </defs>
     <use xlink:href="#DejaVuSans-412"/>
     <use x="68.603516" xlink:href="#DejaVuSans-440"/>
     <use x="132.080078" xlink:href="#DejaVuSans-435"/>
     <use x="193.603516" xlink:href="#DejaVuSans-43c"/>
     <use x="269.042969" xlink:href="#DejaVuSans-44f"/>
     <use x="329.199219" xlink:href="#DejaVuSans-20"/>
     <use x="360.986328" xlink:href="#DejaVuSans-437"/>
     <use x="414.160156" xlink:href="#DejaVuSans-430"/>
     <use x="475.439453" xlink:href="#DejaVuSans-440"/>
     <use x="538.916016" xlink:href="#DejaVuSans-44f"/>
     <use x="599.072266" xlink:href="#DejaVuSans-434"/>
     <use x="668.212891" xlink:href="#DejaVuSans-43a"/>
     <use x="728.613281" xlink:href="#DejaVuSans-438"/>
     <use x="793.603516" xlink:href="#DejaVuSans-3a"/>
     <use x="827.294922" xlink:href="#DejaVuSans-20"/>
     <use x="859.082031" xlink:href="#DejaVuSans-37"/>
     <use x="922.705078" xlink:href="#DejaVuSans-2e"/>
     <use x="954.492188" xlink:href="#DejaVuSans-30"/>
     <use x="1018.115234" xlink:href="#DejaVuSans-20"/>
     <use x="1049.902344" xlink:href="#DejaVuSans-73"/>
    </g>
   </g>
   <g id="text_27">
    <!-- Время разрядки: 4.23 s -->
    <g style="fill:#ff0000;" transform="translate(762.436283 429.465937)scale(0.14 -0.14)">
     <use xlink:href="#DejaVuSans-412"/>
     <use x="68.603516" xlink:href="#DejaVuSans-440"/>
     <use x="132.080078" xlink:href="#DejaVuSans-435"/>
     <use x="193.603516" xlink:href="#DejaVuSans-43c"/>
     <use x="269.042969" xlink:href="#DejaVuSans-44f"/>
     <use x="329.199219" xlink:href="#DejaVuSans-20"/>
     <use x="360.986328" xlink:href="#DejaVuSans-440"/>
     <use x="424.462891" xlink:href="#DejaVuSans-430"/>
     <use x="485.742188" xlink:href="#DejaVuSans-437"/>
     <use x="538.916016" xlink:href="#DejaVuSans-440"/>
     <use x="602.392578" xlink:href="#DejaVuSans-44f"/>
     <use x="662.548828" xlink:href="#DejaVuSans-434"/>
     <use x="731.689453" xlink:href="#DejaVuSans-43a"/>
     <use x="792.089844" xlink:href="#DejaVuSans-438"/>
     <use x="857.080078" xlink:href="#DejaVuSans-3a"/>
     <use x="890.771484" xlink:href="#DejaVuSans-20"/>
     <use x="922.558594" xlink:href="#DejaVuSans-34"/>
     <use x="986.181641" xlink:href="#DejaVuSans-2e"/>
     <use x="1017.96875" xlink:href="#DejaVuSans-32"/>
     <use x="1081.591797" xlink:href="#DejaVuSans-33"/>
     <use x="1145.214844" xlink:href="#DejaVuSans-20"/>
     <use x="1177.001953" xlink:href="#DejaVuSans-73"/>
    </g>
   </g>
   <g id="text_28">
    <!-- Процесс заряда и разряда конденсатора в RC-цепочке -->
    <g transform="translate(299.839062 80.4)scale(0.2 -0.2)">
     <defs>
      <path d="M 4184 4666 
L 4184 0 
L 3553 0 
L 3553 4134 
L 1259 4134 
L 1259 0 
L 628 0 
L 628 4666 
L 4184 4666 
z
" id="DejaVuSans-41f" transform="scale(0.015625)"/>
      <path d="M 1959 3097 
Q 1497 3097 1228 2736 
Q 959 2375 959 1747 
Q 959 1119 1226 758 
Q 1494 397 1959 397 
Q 2419 397 2687 759 
Q 2956 1122 2956 1747 
Q 2956 2369 2687 2733 
Q 2419 3097 1959 3097 
z
M 1959 3584 
Q 2709 3584 3137 3096 
Q 3566 2609 3566 1747 
Q 3566 888 3137 398 
Q 2709 -91 1959 -91 
Q 1206 -91 779 398 
Q 353 888 353 1747 
Q 353 2609 779 3096 
Q 1206 3584 1959 3584 
z
" id="DejaVuSans-43e" transform="scale(0.015625)"/>
      <path d="M 3603 0 
L 581 0 
L 581 3500 
L 1159 3500 
L 1159 459 
L 3025 459 
L 3025 3500 
L 3603 3500 
L 3603 459 
L 4063 459 
L 4063 -884 
L 3603 -884 
L 3603 0 
z
" id="DejaVuSans-446" transform="scale(0.015625)"/>
      <path d="M 188 3500 
L 3541 3500 
L 3541 3041 
L 2147 3041 
L 2147 0 
L 1581 0 
L 1581 3041 
L 188 3041 
L 188 3500 
z
" id="DejaVuSans-442" transform="scale(0.015625)"/>
      <path d="M 1156 1613 
L 1156 459 
L 1975 459 
Q 2369 459 2575 607 
Q 2781 756 2781 1038 
Q 2781 1319 2575 1466 
Q 2369 1613 1975 1613 
L 1156 1613 
z
M 1156 3041 
L 1156 2072 
L 1913 2072 
Q 2238 2072 2444 2201 
Q 2650 2331 2650 2563 
Q 2650 2794 2444 2917 
Q 2238 3041 1913 3041 
L 1156 3041 
z
M 581 3500 
L 1950 3500 
Q 2566 3500 2897 3275 
Q 3228 3050 3228 2634 
Q 3228 2313 3059 2123 
Q 2891 1934 2559 1888 
Q 2956 1813 3175 1575 
Q 3394 1338 3394 981 
Q 3394 513 3033 256 
Q 2672 0 2003 0 
L 581 0 
L 581 3500 
z
" id="DejaVuSans-432" transform="scale(0.015625)"/>
      <path d="M 2841 2188 
Q 3044 2119 3236 1894 
Q 3428 1669 3622 1275 
L 4263 0 
L 3584 0 
L 2988 1197 
Q 2756 1666 2539 1819 
Q 2322 1972 1947 1972 
L 1259 1972 
L 1259 0 
L 628 0 
L 628 4666 
L 2053 4666 
Q 2853 4666 3247 4331 
Q 3641 3997 3641 3322 
Q 3641 2881 3436 2590 
Q 3231 2300 2841 2188 
z
M 1259 4147 
L 1259 2491 
L 2053 2491 
Q 2509 2491 2742 2702 
Q 2975 2913 2975 3322 
Q 2975 3731 2742 3939 
Q 2509 4147 2053 4147 
L 1259 4147 
z
" id="DejaVuSans-52" transform="scale(0.015625)"/>
      <path d="M 4122 4306 
L 4122 3641 
Q 3803 3938 3442 4084 
Q 3081 4231 2675 4231 
Q 1875 4231 1450 3742 
Q 1025 3253 1025 2328 
Q 1025 1406 1450 917 
Q 1875 428 2675 428 
Q 3081 428 3442 575 
Q 3803 722 4122 1019 
L 4122 359 
Q 3791 134 3420 21 
Q 3050 -91 2638 -91 
Q 1578 -91 968 557 
Q 359 1206 359 2328 
Q 359 3453 968 4101 
Q 1578 4750 2638 4750 
Q 3056 4750 3426 4639 
Q 3797 4528 4122 4306 
z
" id="DejaVuSans-43" transform="scale(0.015625)"/>
      <path d="M 313 2009 
L 1997 2009 
L 1997 1497 
L 313 1497 
L 313 2009 
z
" id="DejaVuSans-2d" transform="scale(0.015625)"/>
      <path d="M 2625 0 
L 2625 1472 
L 1553 1472 
Q 1075 1472 756 1769 
Q 469 2038 469 2613 
L 469 3500 
L 1044 3500 
L 1044 2666 
Q 1044 2300 1206 2116 
Q 1372 1931 1697 1931 
L 2625 1931 
L 2625 3500 
L 3200 3500 
L 3200 0 
L 2625 0 
z
" id="DejaVuSans-447" transform="scale(0.015625)"/>
     </defs>
     <use xlink:href="#DejaVuSans-41f"/>
     <use x="75.195312" xlink:href="#DejaVuSans-440"/>
     <use x="138.671875" xlink:href="#DejaVuSans-43e"/>
     <use x="199.853516" xlink:href="#DejaVuSans-446"/>
     <use x="267.919922" xlink:href="#DejaVuSans-435"/>
     <use x="329.443359" xlink:href="#DejaVuSans-441"/>
     <use x="384.423828" xlink:href="#DejaVuSans-441"/>
     <use x="439.404297" xlink:href="#DejaVuSans-20"/>
     <use x="471.191406" xlink:href="#DejaVuSans-437"/>
     <use x="524.365234" xlink:href="#DejaVuSans-430"/>
     <use x="585.644531" xlink:href="#DejaVuSans-440"/>
     <use x="649.121094" xlink:href="#DejaVuSans-44f"/>
     <use x="709.277344" xlink:href="#DejaVuSans-434"/>
     <use x="778.417969" xlink:href="#DejaVuSans-430"/>
     <use x="839.697266" xlink:href="#DejaVuSans-20"/>
     <use x="871.484375" xlink:href="#DejaVuSans-438"/>
     <use x="936.474609" xlink:href="#DejaVuSans-20"/>
     <use x="968.261719" xlink:href="#DejaVuSans-440"/>
     <use x="1031.738281" xlink:href="#DejaVuSans-430"/>
     <use x="1093.017578" xlink:href="#DejaVuSans-437"/>
     <use x="1146.191406" xlink:href="#DejaVuSans-440"/>
     <use x="1209.667969" xlink:href="#DejaVuSans-44f"/>
     <use x="1269.824219" xlink:href="#DejaVuSans-434"/>
     <use x="1338.964844" xlink:href="#DejaVuSans-430"/>
     <use x="1400.244141" xlink:href="#DejaVuSans-20"/>
     <use x="1432.03125" xlink:href="#DejaVuSans-43a"/>
     <use x="1492.431641" xlink:href="#DejaVuSans-43e"/>
     <use x="1553.613281" xlink:href="#DejaVuSans-43d"/>
     <use x="1618.994141" xlink:href="#DejaVuSans-434"/>
     <use x="1688.134766" xlink:href="#DejaVuSans-435"/>
     <use x="1749.658203" xlink:href="#DejaVuSans-43d"/>
     <use x="1815.039062" xlink:href="#DejaVuSans-441"/>
     <use x="1870.019531" xlink:href="#DejaVuSans-430"/>
     <use x="1931.298828" xlink:href="#DejaVuSans-442"/>
     <use x="1989.550781" xlink:href="#DejaVuSans-43e"/>
     <use x="2050.732422" xlink:href="#DejaVuSans-440"/>
     <use x="2114.208984" xlink:href="#DejaVuSans-430"/>
     <use x="2175.488281" xlink:href="#DejaVuSans-20"/>
     <use x="2207.275391" xlink:href="#DejaVuSans-432"/>
     <use x="2266.210938" xlink:href="#DejaVuSans-20"/>
     <use x="2297.998047" xlink:href="#DejaVuSans-52"/>
     <use x="2362.480469" xlink:href="#DejaVuSans-43"/>
     <use x="2432.304688" xlink:href="#DejaVuSans-2d"/>
     <use x="2468.388672" xlink:href="#DejaVuSans-446"/>
     <use x="2536.455078" xlink:href="#DejaVuSans-435"/>
     <use x="2597.978516" xlink:href="#DejaVuSans-43f"/>
     <use x="2663.359375" xlink:href="#DejaVuSans-43e"/>
     <use x="2724.541016" xlink:href="#DejaVuSans-447"/>
     <use x="2783.623047" xlink:href="#DejaVuSans-43a"/>
     <use x="2844.023438" xlink:href="#DejaVuSans-435"/>
    </g>
   </g>
   <g id="legend_1">
    <g id="patch_7">
     <path d="M 748.4075 146.17 
L 1025.6 146.17 
Q 1028.8 146.17 1028.8 142.97 
L 1028.8 97.6 
Q 1028.8 94.4 1025.6 94.4 
L 748.4075 94.4 
Q 745.2075 94.4 745.2075 97.6 
L 745.2075 142.97 
Q 745.2075 146.17 748.4075 146.17 
z
" style="fill:#ffffff;opacity:0.8;stroke:#cccccc;stroke-linejoin:miter;"/>
    </g>
    <g id="line2d_85">
     <path d="M 751.6075 107.3575 
L 783.6075 107.3575 
" style="fill:none;stroke:#0000ff;stroke-linecap:square;stroke-width:1.5;"/>
    </g>
    <g id="line2d_86"/>
    <g id="text_29">
     <!-- Конденсатор заряжается -->
     <g transform="translate(796.4075 112.9575)scale(0.16 -0.16)">
      <defs>
       <path d="M 628 4666 
L 1259 4666 
L 1259 2359 
L 3516 4666 
L 4325 4666 
L 2522 2822 
L 4419 0 
L 3731 0 
L 2113 2403 
L 1259 1531 
L 1259 0 
L 628 0 
L 628 4666 
z
" id="DejaVuSans-41a" transform="scale(0.015625)"/>
      </defs>
      <use xlink:href="#DejaVuSans-41a"/>
      <use x="70.996094" xlink:href="#DejaVuSans-43e"/>
      <use x="132.177734" xlink:href="#DejaVuSans-43d"/>
      <use x="197.558594" xlink:href="#DejaVuSans-434"/>
      <use x="266.699219" xlink:href="#DejaVuSans-435"/>
      <use x="328.222656" xlink:href="#DejaVuSans-43d"/>
      <use x="393.603516" xlink:href="#DejaVuSans-441"/>
      <use x="448.583984" xlink:href="#DejaVuSans-430"/>
      <use x="509.863281" xlink:href="#DejaVuSans-442"/>
      <use x="568.115234" xlink:href="#DejaVuSans-43e"/>
      <use x="629.296875" xlink:href="#DejaVuSans-440"/>
      <use x="692.773438" xlink:href="#DejaVuSans-20"/>
      <use x="724.560547" xlink:href="#DejaVuSans-437"/>
      <use x="777.734375" xlink:href="#DejaVuSans-430"/>
      <use x="839.013672" xlink:href="#DejaVuSans-440"/>
      <use x="902.490234" xlink:href="#DejaVuSans-44f"/>
      <use x="962.646484" xlink:href="#DejaVuSans-436"/>
      <use x="1052.734375" xlink:href="#DejaVuSans-430"/>
      <use x="1114.013672" xlink:href="#DejaVuSans-435"/>
      <use x="1175.537109" xlink:href="#DejaVuSans-442"/>
      <use x="1233.789062" xlink:href="#DejaVuSans-441"/>
      <use x="1288.769531" xlink:href="#DejaVuSans-44f"/>
     </g>
    </g>
    <g id="line2d_87">
     <path d="M 751.6075 130.8425 
L 783.6075 130.8425 
" style="fill:none;stroke:#ff0000;stroke-linecap:square;stroke-width:1.5;"/>
    </g>
    <g id="line2d_88"/>
    <g id="text_30">
     <!-- Конденсатор разряжается -->
     <g transform="translate(796.4075 136.4425)scale(0.16 -0.16)">
      <use xlink:href="#DejaVuSans-41a"/>
      <use x="70.996094" xlink:href="#DejaVuSans-43e"/>
      <use x="132.177734" xlink:href="#DejaVuSans-43d"/>
      <use x="197.558594" xlink:href="#DejaVuSans-434"/>
      <use x="266.699219" xlink:href="#DejaVuSans-435"/>
      <use x="328.222656" xlink:href="#DejaVuSans-43d"/>
      <use x="393.603516" xlink:href="#DejaVuSans-441"/>
      <use x="448.583984" xlink:href="#DejaVuSans-430"/>
      <use x="509.863281" xlink:href="#DejaVuSans-442"/>
      <use x="568.115234" xlink:href="#DejaVuSans-43e"/>
      <use x="629.296875" xlink:href="#DejaVuSans-440"/>
      <use x="692.773438" xlink:href="#DejaVuSans-20"/>
      <use x="724.560547" xlink:href="#DejaVuSans-440"/>
      <use x="788.037109" xlink:href="#DejaVuSans-430"/>
      <use x="849.316406" xlink:href="#DejaVuSans-437"/>
      <use x="902.490234" xlink:href="#DejaVuSans-440"/>
      <use x="965.966797" xlink:href="#DejaVuSans-44f"/>
      <use x="1026.123047" xlink:href="#DejaVuSans-436"/>
      <use x="1116.210938" xlink:href="#DejaVuSans-430"/>
      <use x="1177.490234" xlink:href="#DejaVuSans-435"/>
      <use x="1239.013672" xlink:href="#DejaVuSans-442"/>
      <use x="1297.265625" xlink:href="#DejaVuSans-441"/>
      <use x="1352.246094" xlink:href="#DejaVuSans-44f"/>
     </g>
    </g>
   </g>
  </g>
 </g>
 <defs>
  <clipPath id="p000a9c9f98">
   <rect height="554.4" width="892.8" x="144" y="86.4"/>
  </clipPath>
 </defs>
</svg>
